<?xml version="1.0" encoding="utf-8"?>
<!-- Generator: Adobe Illustrator 16.0.0, SVG Export Plug-In . SVG Version: 6.00 Build 0)  -->
<!DOCTYPE svg PUBLIC "-//W3C//DTD SVG 1.1//EN" "http://www.w3.org/Graphics/SVG/1.1/DTD/svg11.dtd">
<svg version="1.1" id="Layer_1" xmlns="http://www.w3.org/2000/svg" xmlns:xlink="http://www.w3.org/1999/xlink" x="0px" y="0px"
	 width="750px" height="422px" viewBox="0 0 750 422" enable-background="new 0 0 750 422" xml:space="preserve">
<path fill="#333333" d="M578.856,190.423c-140.755,9.542-352.225,11.086-568.591-34.397c-1.286,0.894-2.309,1.654-3.047,2.226
	c-0.019,0.015-0.038,0.03-0.058,0.044c-0.116,0.091-0.226,0.176-0.325,0.254c-0.021,0.019-0.044,0.034-0.063,0.05
	c-0.109,0.083-0.206,0.162-0.294,0.233c-0.023,0.019-0.044,0.036-0.065,0.053c-0.065,0.053-0.126,0.103-0.182,0.146
	c-0.019,0.016-0.041,0.034-0.059,0.049c-0.06,0.048-0.115,0.092-0.155,0.129c-0.015,0.012-0.025,0.02-0.038,0.031
	c-0.029,0.023-0.055,0.046-0.074,0.062c-0.008,0.006-0.019,0.015-0.025,0.019c-0.011,0.01-0.026,0.023-0.026,0.023
	c-0.319,0.994-0.564,1.97-0.733,2.928c-2.548,14.369,11.517,24.658,29.211,31.823l0.186-0.394
	c5.597-11.976,13.487-18.571,22.213-18.571c11.168,0,20.687,10.577,26.107,29.014l1.438,2.751c6.763,1.09,11.724,1.567,11.724,1.567
	v4.094l-16.121,1.604l-1.785,0.149c-16.369,1.171-19.454,18.714-19.454,18.714c-11.694-1.168-7.678,5.262-7.678,5.262
	c2.338,3.511,9.9,4.096,9.9,4.096c0,8.771,4.075,14.619,4.075,14.619c1.937,2.519,7.137,4.586,13.239,6.229
	c12.316,3.311,28.264,4.882,28.264,4.882c-1.752,12.866,8.186,14.035,8.186,14.035L60.827,391.498
	c-10.737,19.755-1.606,22.48,4.003,22.533c2.028,0.02,3.594-0.311,3.594-0.311c35.635-1.096,60.479-22.237,63.443-24.877
	c0.05-0.044,0.093-0.081,0.131-0.115c0.076-0.066,0.123-0.114,0.15-0.136c0.01-0.012,0.017-0.019,0.017-0.019
	c98.828-65.492,169.584-140.93,169.584-140.93c13.451-7.017,88.887-17.544,88.887-17.544c17.543-2.924,48.537-6.432,48.537-6.432
	l145.713-19.541L578.856,190.423z"/>
<path fill="#A6A6A6" d="M713.431,166.946l-7.604-50.29l-10.524-56.725c-5.849-21.05-52.63-16.371-52.63-16.371
	c-33.917-1.17-76.021,84.207-76.021,84.207c-7.601,3.507-82.453,4.677-82.453,4.677c-15.203-1.17-76.604-7.602-76.604-7.602
	c-16.082-0.585-117.249-5.263-117.249-5.263l0.015-0.021c-129.044-9.326-190.942-2.904-190.942-2.904
	c-1.575,0.074-3.102,0.172-4.586,0.286c-13.046,13.078-25.776,32.027-8.278,45.325c29.083,22.106,347.45,37.843,491.829,27.075
	l-4.439-10.096l0.018-1.271c0.085-5.891,7.116-6.876,11.317-7.466c8.586-1.204,23.601-1.814,44.627-1.814
	c22.082,0,50.602,0.685,84.794,2.034L713.431,166.946z"/>
<path fill="#FFFFFF" d="M713.431,166.946"/>
<path fill="none" d="M96,212.559v-4.094c0,0-7.824-0.791-18.142-2.67c0.774,2.639,1.77,5.436,2.335,8.367L96,212.559z"/>
<path fill="#333333" d="M54.06,227.109c2.841-7.76,9.82-17.621,23.206-18.623l0.681-0.07c-0.23-0.888-0.467-1.766-0.719-2.622
	c-4.396-14.951-11.935-24.814-20.497-24.814c-6.556,0-12.512,5.781-16.917,15.199c-4.709,10.067-7.646,24.292-7.646,40.061
	c0,30.521,10.997,55.26,24.562,55.26c8.141,0,15.357-8.919,19.824-22.649c-8.639-2.334-13.663-4.892-16.273-8.284l-0.081-0.104
	l-0.074-0.109c-0.438-0.622-3.692-5.477-4.791-12.995c-3.267-0.862-7.132-2.543-9.32-5.826l-0.067-0.104
	c-1.503-2.362-2.447-6.093-0.586-9.479C46.934,229.084,49.854,227.46,54.06,227.109z"/>
<polygon fill="#BCBEC0" points="34.333,194.097 34.519,193.703 34.333,194.097 "/>
<path fill="#333333" d="M407.806,119l0.199,0.006l0.195,0.021c0.089,0.009,1.379,0.144,3.568,0.373
	c17.714-23.623,67.754-94.553,67.754-94.553c7.019-19.297-16.96-17.542-16.96-17.542c-39.246,20.37-135.89,87.162-164.08,106.797
	C322.582,115.21,394.569,118.518,407.806,119z"/>
<path fill="#333333" d="M718.831,163.565l23.253-33.459c0-12.635-20.124-13.908-30.385-13.737L718.831,163.565z"/>
<path fill="#FFFFFF" d="M166.668,220.16c2.706,0.317,5.398,0.769,8.073,1.318c2.677,0.539,5.334,1.195,7.967,1.964
	c1.318,0.381,2.628,0.798,3.924,1.263l1.943,0.707l1.921,0.786c0.646,0.247,1.265,0.568,1.898,0.857
	c0.632,0.292,1.264,0.586,1.871,0.944c0.607,0.354,1.237,0.658,1.828,1.055l1.776,1.18c0.584,0.388,0.744,1.176,0.356,1.761
	c-0.209,0.315-0.535,0.507-0.882,0.556l-0.133,0.018c-2.731,0.372-5.503,0.854-8.244,1.358c-2.75,0.491-5.488,1.042-8.214,1.646
	c-1.366,0.284-2.721,0.619-4.079,0.944c-1.361,0.309-2.717,0.631-4.065,0.989c-1.348,0.355-2.709,0.666-4.042,1.068l-4.019,1.147
	l-3.977,1.268c-1.337,0.391-2.636,0.882-3.951,1.334c-1.309,0.465-2.632,0.895-3.911,1.433l-3.866,1.541l-3.783,1.713
	c-1.282,0.532-2.493,1.193-3.721,1.825c-1.217,0.648-2.484,1.224-3.635,1.977l-3.533,2.146l0.428-0.451l-10.689,16.747l-5.375,8.361
	c-0.921,1.38-1.744,2.802-2.625,4.207l-2.649,4.221l2.126-4.496c0.736-1.486,1.427-3.013,2.205-4.478l4.701-8.773
	c1.584-2.917,3.203-5.809,4.841-8.692l4.944-8.634c0.106-0.186,0.26-0.341,0.428-0.451l3.614-2.339
	c1.186-0.819,2.47-1.45,3.714-2.159c1.254-0.69,2.495-1.412,3.797-1.998l3.877-1.826l3.957-1.62c1.312-0.564,2.66-1.02,3.997-1.508
	c1.341-0.476,2.67-0.989,4.03-1.401l4.072-1.266l4.106-1.131c1.364-0.397,2.75-0.7,4.125-1.049c2.749-0.703,5.528-1.271,8.311-1.804
	c2.783-0.534,5.575-1.015,8.377-1.435c2.807-0.424,5.604-0.749,8.462-1.012l-0.659,2.334l-1.57-1.149
	c-0.521-0.388-1.106-0.702-1.657-1.06c-0.55-0.357-1.128-0.682-1.713-0.995c-0.584-0.314-1.152-0.66-1.76-0.938l-1.801-0.878
	l-1.842-0.807c-0.611-0.279-1.24-0.518-1.864-0.768c-0.626-0.246-1.245-0.516-1.88-0.742c-1.259-0.482-2.531-0.936-3.813-1.369
	c-1.284-0.422-2.57-0.848-3.867-1.245C171.923,221.57,169.312,220.809,166.668,220.16z"/>
<polygon fill="#333333" points="182,173.378 165.174,170.871 166.083,159 182,159 "/>
<polygon fill="#333333" points="219.161,176.215 201.768,173.718 202.113,161.861 219.161,161.861 "/>
<polygon fill="#333333" points="258.638,178.521 241.245,176.023 241.59,164.166 258.638,164.166 "/>
<polygon fill="#333333" points="297.88,180.415 280.487,177.917 280.832,166.06 297.88,166.06 "/>
<polygon fill="#333333" points="336.31,183.391 318.917,180.895 319.262,169.037 336.31,169.037 "/>
<polygon fill="#333333" points="379.07,184.474 361.679,181.977 362.022,170.12 379.07,170.12 "/>
<path fill="#FFFFFF" d="M64.138,162.464l-0.388-17.935c-13.431-1.052-13.613-7.958-14.219-10.146c-2.73,2.336-4.69,6.345-4.69,6.345
	c-2.332,0.421-4.396,1.431-6.581,2.034C49.416,163.492,64.138,162.464,64.138,162.464z"/>
<path fill="#333333" d="M693.603,185.852l23.229-9.187c-136.944-5.486-137.021,1.391-137.021,1.391l18.128,41.227
	c0,0,1.96,3.596,3.501,5.053c17.2,19.967,60.53,9.859,60.53,9.859c16.375-2.925,36.258-42.104,36.258-42.104l-1.029-1.372
	L693.603,185.852z"/>
<path fill="#333333" d="M578.383,189.342c-144.379,10.768-462.746-4.969-491.829-27.075c-17.499-13.297-4.768-32.247,8.278-45.325
	c-33.347,2.569-44.636,14.731-48.23,20.805c0.606,2.189,3.716,5.73,17.147,6.783l0.388,17.935c0,0-14.722,1.028-25.878-19.701
	c-12.585,3.457-27.531,11.612-32.5,16.485c216.365,45.483,433.22,42.677,573.977,33.135"/>
<g id="lRNQFc.tif">
	
		<image overflow="visible" width="1200" height="675" id="Layer_0" xlink:href="9F38B1F1224A5CD7.png"  transform="matrix(1 0 0 1 1504.6777 -223.1021)">
	</image>
</g>
</svg>
